<svg width="199" height="49" viewBox="0 0 199 49" fill="none" xmlns="http://www.w3.org/2000/svg">
<path d="M70.6826 9C73.4507 9.00002 75.7442 9.48147 77.5625 10.4443C79.3807 11.4072 80.7412 12.7244 81.6445 14.3955C82.5479 16.0557 83 17.9261 83 20.0068C83 22.0986 82.5429 23.9802 81.6279 25.6514C80.7245 27.3115 79.3573 28.6286 77.5273 29.6025C75.709 30.5654 73.4215 31.0469 70.665 31.0469H63.3682V43H58V9H70.6826ZM98.9912 14C99.2864 14 99.6346 14.0123 100.035 14.0371C100.446 14.0619 100.768 14.0927 101 14.1299V19.4502C100.81 19.3882 100.473 19.3205 99.9883 19.2461C99.5034 19.1593 99.0181 19.1153 98.5332 19.1152C97.4157 19.1152 96.419 19.3942 95.5439 19.9521C94.6795 20.4977 93.9943 21.2607 93.4883 22.2402C92.9822 23.2075 92.7285 24.3116 92.7285 25.5518V43H88V14.4277H92.5703V18.9668H92.8232C93.2661 17.4291 94.0465 16.2193 95.1641 15.3389C96.2921 14.4461 97.568 14.0001 98.9912 14ZM138.865 10C140.114 10 141.438 10.1526 142.836 10.457C144.247 10.7476 145.564 11.2867 146.785 12.0752C148.02 12.8638 149.032 13.9915 149.819 15.458C150.607 16.9108 151 18.8005 151 21.125V42.2939H145.055V37.9355H144.811C144.417 38.7381 143.826 39.5269 143.039 40.3018C142.252 41.0766 141.241 41.7205 140.006 42.2324C138.771 42.7443 137.291 43 135.567 43C133.586 43 131.793 42.6261 130.191 41.8789C128.59 41.1179 127.321 40.0179 126.385 38.5791C125.462 37.1402 125 35.3763 125 33.2871C125 31.4886 125.339 30.0079 126.018 28.8457C126.696 27.6835 127.613 26.7629 128.767 26.085C129.92 25.407 131.21 24.8947 132.635 24.5488C134.06 24.2029 135.513 23.9406 136.992 23.7607C138.865 23.5394 140.385 23.3591 141.553 23.2207C142.72 23.0685 143.568 22.8262 144.098 22.4941C144.627 22.1621 144.892 21.6222 144.892 20.875V20.7305C144.892 18.9179 144.39 17.5128 143.386 16.5166C142.395 15.5204 140.914 15.0225 138.946 15.0225C136.897 15.0225 135.281 15.4861 134.101 16.4131C132.933 17.3262 132.126 18.3432 131.678 19.4639L125.957 18.1357C126.636 16.1987 127.627 14.6352 128.93 13.4453C130.246 12.2416 131.76 11.3697 133.47 10.8301C135.18 10.2766 136.979 10 138.865 10ZM161.275 22.6445H178.707V7H184V43H178.707V27.3027H161.275V43H156V7H161.275V22.6445ZM198.241 43H192.704V15.5977H198.241V43ZM102.569 6.2002C105.365 6.20022 107.686 6.68219 109.53 7.64551C111.386 8.60879 112.772 9.94226 113.688 11.6455C114.605 13.3372 115.063 15.2934 115.063 17.5137C115.063 19.7223 114.599 21.6667 113.671 23.3467C112.755 25.0148 111.369 26.3131 109.513 27.2412C109.174 27.4114 108.819 27.5651 108.449 27.7041L116.438 42.291H110.234L102.901 28.6289C102.786 28.6305 102.669 28.6338 102.552 28.6338H97.5967V23.9463H102.058C103.82 23.9463 105.253 23.6935 106.357 23.1885C107.473 22.6833 108.291 21.9487 108.808 20.9854C109.324 20.0221 109.583 18.8646 109.583 17.5137C109.583 16.151 109.319 14.9702 108.79 13.9717C108.273 12.9731 107.456 12.2093 106.34 11.6807C105.236 11.1404 103.785 10.8701 101.987 10.8701H95.1504V11.2754H89.7051V6.2002H102.569ZM144.912 26.6865C144.695 26.9079 144.275 27.1159 143.65 27.3096C143.04 27.4894 142.34 27.6487 141.553 27.7871C140.766 27.9116 139.998 28.029 139.252 28.1396C138.506 28.2365 137.881 28.3195 137.379 28.3887C136.198 28.5409 135.119 28.7965 134.142 29.1562C133.178 29.516 132.404 30.0349 131.82 30.7129C131.25 31.377 130.966 32.2632 130.966 33.3701C130.966 34.9057 131.522 36.0678 132.635 36.8564C133.748 37.6313 135.167 38.0186 136.891 38.0186C138.574 38.0185 140.013 37.6799 141.207 37.002C142.415 36.3241 143.331 35.4385 143.955 34.3457C144.593 33.2388 144.912 32.055 144.912 30.7959V26.6865ZM63.3682 26.6973H70.1787C71.9274 26.6973 73.3459 26.4094 74.4346 25.834C75.5233 25.2474 76.3234 24.4505 76.833 23.4434C77.3426 22.4362 77.5967 21.2906 77.5967 20.0068C77.5967 18.7231 77.3426 17.583 76.833 16.5869C76.3234 15.5909 75.5181 14.8105 74.418 14.2461C73.3293 13.6817 71.8929 13.3994 70.1094 13.3994H63.3682V26.6973ZM195.5 5C196.463 5 197.284 5.31505 197.963 5.94531C198.654 6.56376 199 7.31326 199 8.19336C199 9.06159 198.654 9.81105 197.963 10.4414C197.284 11.0598 196.463 11.3691 195.5 11.3691C194.537 11.3691 193.71 11.0598 193.019 10.4414C192.34 9.81105 192 9.06159 192 8.19336C192 7.31326 192.34 6.56376 193.019 5.94531C193.71 5.31503 194.537 5 195.5 5Z" fill="white"/>
<path d="M24.1089 0.000259861C21.7819 -0.0182867 19.4653 1.01846 18.1007 2.90444C17.7606 3.37428 17.5993 3.85402 17.4148 4.35982C20.0132 2.39369 24.104 2.18885 27.5349 4.12799C28.8005 4.84348 29.8995 5.7062 30.629 6.72656C30.9249 4.48347 29.89 2.2006 27.6379 0.927689C26.5478 0.311326 25.3278 0.0099454 24.1089 0.000363037V0.000259861ZM8.07709 2.65004C3.86497 3.18006 1.63795 7.20486 5.31129 11.0248C12.0411 18.0239 19.7911 4.35807 28.7264 8.86446C23.1478 0.146262 16.8183 9.34152 9.74813 8.55535C7.22889 8.2754 5.59474 5.18844 8.07709 2.65004ZM0.78089 7.17405C-2.79941 14.3423 6.65457 21.9348 14.4559 15.5715C9.0073 16.5802 0.579454 14.143 0.78089 7.17405ZM24.4374 10.4358C23.8262 10.4485 23.2689 10.5386 22.6793 10.6226C27.3257 12.0453 31.0391 15.9609 31.5244 20.4753C31.7033 22.1406 31.5571 23.7309 30.9031 25.0443C33.9475 24.0331 35.916 21.6841 35.5974 18.7206C35.1492 14.5471 30.4069 10.8349 25.0686 10.4519C24.8501 10.4363 24.641 10.4315 24.4374 10.4358ZM22.116 12.9183C17.3079 12.9107 14.0846 22.0265 7.6328 20.6333C13.4543 26.3553 16.3933 17.6262 21.8003 16.6921C23.7268 16.359 25.5343 18.4596 24.1766 21.0324C27.2061 19.679 28.0885 15.9752 24.6241 13.7395C23.7315 13.1633 22.9026 12.9196 22.1158 12.9183H22.116ZM28.8453 18.9588C28.3272 21.6579 26.0808 23.6385 23.1525 23.6404C22.0724 23.6414 21.014 23.4508 20.0905 22.9737C21.0306 24.8669 22.7533 26.1988 24.6756 26.197C27.3829 26.1942 29.3992 23.5856 29.1706 20.4043C29.1335 19.8844 28.9899 19.4376 28.8455 18.9587L28.8453 18.9588ZM37.3651 21.9469C34.3693 28.8482 25.3895 30.0424 18.8928 26.7572C20.6233 33.1839 27.58 34.473 32.516 31.7029C31.8182 34.08 30.0807 36.6613 26.8779 38.6806C34.3106 37.3202 38.5175 29.012 37.3652 21.9468L37.3651 21.9469ZM15.7275 24.9059C15.5895 25.2457 15.4725 25.5807 15.3702 25.9136C11.076 32.214 12.4988 40.8432 18.6834 45.4131C25.0171 50.0931 33.9571 48.7522 38.637 42.4187C42.1326 37.6879 42.2688 31.5022 39.4742 26.7251C39.8818 31.6174 35.0525 39.6951 29.2705 40.8765C23.7713 42 17.9759 39.1149 16.0239 33.3C18.396 37.473 23.987 39.12 27.7733 35.5122C21.1707 37.7514 16.3634 30.4104 15.7275 24.9059Z" fill="url(#paint0_linear_2_127)"/>
<defs>
<linearGradient id="paint0_linear_2_127" x1="20.7143" y1="1.52588e-05" x2="20.7143" y2="48.205" gradientUnits="userSpaceOnUse">
<stop offset="0.0240385" stop-color="#E69797"/>
<stop offset="1" stop-color="#A95050"/>
</linearGradient>
</defs>
</svg>
