<svg width="133" height="33" viewBox="0 0 133 33" fill="none" xmlns="http://www.w3.org/2000/svg">
<path d="M39 29V6H47.1167C48.8883 6 50.356 6.32568 51.5198 6.97705C52.6836 7.62842 53.5546 8.51937 54.1327 9.6499C54.7109 10.7729 55 12.0382 55 13.4458C55 14.8608 54.7072 16.1336 54.1216 17.2642C53.5434 18.3872 52.6688 19.2782 51.4976 19.937C50.3338 20.5884 48.8698 20.9141 47.1056 20.9141H41.524V17.9717H46.7943C47.9136 17.9717 48.8216 17.777 49.5184 17.3877C50.2152 16.9909 50.7267 16.4518 51.0528 15.7705C51.379 15.0892 51.542 14.3143 51.542 13.4458C51.542 12.5773 51.379 11.8062 51.0528 11.1323C50.7267 10.4585 50.2115 9.93066 49.5073 9.54883C48.8105 9.16699 47.8914 8.97607 46.7498 8.97607H42.4357V29H39Z" fill="white"/>
<path d="M59 29V9.29506H62.1642V12.4253H62.3394C62.646 11.3648 63.1861 10.5309 63.9599 9.92367C64.7409 9.30789 65.6241 9 66.6095 9C66.8139 9 67.0547 9.00855 67.3321 9.02566C67.6168 9.04276 67.8394 9.06414 68 9.0898V12.7588C67.8686 12.7161 67.635 12.669 67.2993 12.6177C66.9635 12.5578 66.6277 12.5279 66.292 12.5279C65.5182 12.5279 64.8285 12.7203 64.2226 13.1052C63.6241 13.4815 63.1496 14.0075 62.7993 14.6831C62.4489 15.3502 62.2737 16.1114 62.2737 16.9666V29H59Z" fill="white"/>
<path d="M90.9092 29C89.6134 29 88.4419 28.7509 87.3947 28.2528C86.3474 27.7455 85.5176 27.0122 84.9052 26.0528C84.3017 25.0935 84 23.9174 84 22.5245C84 21.3254 84.2219 20.3384 84.6656 19.5635C85.1094 18.7887 85.7084 18.1753 86.4628 17.7233C87.2172 17.2713 88.0603 16.93 88.9922 16.6994C89.924 16.4688 90.8737 16.2935 91.841 16.1736C93.0658 16.026 94.0598 15.9061 94.823 15.8138C95.5863 15.7124 96.141 15.5509 96.4871 15.3296C96.8332 15.1082 97.0063 14.7484 97.0063 14.2503V14.1535C97.0063 12.9451 96.6779 12.0088 96.0211 11.3447C95.3733 10.6805 94.4059 10.3484 93.119 10.3484C91.7789 10.3484 90.7228 10.6574 89.9507 11.2755C89.1874 11.8843 88.6594 12.5623 88.3665 13.3094L84.6257 12.4239C85.0694 11.1325 85.7173 10.0901 86.5693 9.29686C87.4302 8.49434 88.4197 7.91321 89.538 7.55346C90.6562 7.18449 91.8322 7 93.0658 7C93.8823 7 94.7476 7.10147 95.6617 7.3044C96.5847 7.49811 97.4456 7.85786 98.2443 8.38365C99.0519 8.90943 99.7131 9.66122 100.228 10.639C100.743 11.6075 101 12.8667 101 14.4164V28.5296H97.1128V25.6239H96.953C96.6956 26.1589 96.3096 26.6847 95.7948 27.2013C95.2801 27.7178 94.6189 28.1468 93.8113 28.4881C93.0037 28.8294 92.0363 29 90.9092 29ZM91.7745 25.6792C92.875 25.6792 93.8157 25.4532 94.5967 25.0013C95.3866 24.5493 95.9856 23.9589 96.3939 23.2302C96.811 22.4922 97.0196 21.7036 97.0196 20.8642V18.1245C96.8776 18.2721 96.6025 18.4105 96.1942 18.5396C95.7948 18.6595 95.3378 18.7656 94.823 18.8579C94.3083 18.9409 93.8068 19.0193 93.3187 19.0931C92.8306 19.1577 92.4223 19.213 92.094 19.2591C91.3218 19.3606 90.6163 19.5312 89.9773 19.7711C89.3472 20.0109 88.8413 20.3568 88.4597 20.8088C88.0869 21.2516 87.9005 21.8419 87.9005 22.5799C87.9005 23.6038 88.2644 24.3786 88.9922 24.9044C89.7199 25.421 90.6474 25.6792 91.7745 25.6792Z" fill="white"/>
<path d="M104 29V5H107.58V15.4297H119.409V5H123V29H119.409V18.5352H107.58V29H104Z" fill="white"/>
<path d="M128.503 29V10.2507H132.458V29H128.503ZM130.5 7.35775C129.812 7.35775 129.221 7.14617 128.728 6.723C128.243 6.2917 128 5.77903 128 5.18498C128 4.58279 128.243 4.07011 128.728 3.64695C129.221 3.21565 129.812 3 130.5 3C131.188 3 131.774 3.21565 132.259 3.64695C132.753 4.07011 133 4.58279 133 5.18498C133 5.77903 132.753 6.2917 132.259 6.723C131.774 7.14617 131.188 7.35775 130.5 7.35775Z" fill="white"/>
<path d="M68.5508 4.14355C70.4193 4.14355 71.9705 4.46566 73.2031 5.10938C74.4436 5.75316 75.37 6.64484 75.9824 7.7832C76.5948 8.9138 76.9013 10.2212 76.9014 11.7051C76.9014 13.1812 76.591 14.4807 75.9707 15.6035C75.3583 16.7185 74.432 17.5867 73.1914 18.207C72.9656 18.3207 72.7286 18.4228 72.4814 18.5156L77.8203 28.2646H73.6748L68.7715 19.1309C68.6947 19.1319 68.617 19.1367 68.5391 19.1367H65.2275V16.0039H68.21C69.3873 16.0039 70.3451 15.8355 71.083 15.498C71.8289 15.1604 72.3752 14.6692 72.7207 14.0254C73.0661 13.3816 73.2383 12.6079 73.2383 11.7051C73.2383 10.7944 73.0623 10.0052 72.709 9.33789C72.3635 8.67049 71.8172 8.15997 71.0713 7.80664C70.3333 7.44557 69.3632 7.26465 68.1621 7.26465H63.5928V7.53613H59.9531V4.14355H68.5508Z" fill="white"/>
<path d="M16.113 0.000178737C14.5578 -0.0122167 13.0094 0.680687 12.0974 1.94116C11.8702 2.25518 11.7623 2.57581 11.6391 2.91386C13.3757 1.59981 16.1097 1.46291 18.4027 2.75891C19.2486 3.2371 19.9831 3.81369 20.4707 4.49565C20.6684 2.99649 19.9767 1.47076 18.4716 0.620018C17.743 0.208077 16.9276 0.00665199 16.113 0.000247693V0.000178737ZM5.39825 1.77114C2.58312 2.12537 1.09471 4.81531 3.54976 7.36835C8.04757 12.0461 13.2272 2.91269 19.199 5.92449C15.4706 0.097758 11.2403 6.24333 6.51508 5.7179C4.83137 5.5308 3.7392 3.46766 5.39825 1.77114ZM0.521901 4.79472C-1.87096 9.58555 4.44753 14.66 9.66145 10.4071C6.01995 11.0813 0.387273 9.45237 0.521901 4.79472ZM16.3325 6.97466C15.924 6.9832 15.5516 7.04339 15.1575 7.09951C18.2629 8.05038 20.7447 10.6673 21.0691 13.6845C21.1886 14.7975 21.0909 15.8604 20.6538 16.7382C22.6885 16.0624 24.0042 14.4924 23.7913 12.5118C23.4917 9.72245 20.3222 7.24144 16.7544 6.98547C16.6084 6.97501 16.4686 6.97184 16.3325 6.97466ZM14.781 8.63386C11.5676 8.62876 9.41333 14.7212 5.10132 13.7901C8.9921 17.6143 10.9564 11.7804 14.57 11.156C15.8576 10.9334 17.0656 12.3373 16.1582 14.0568C18.1829 13.1523 18.7727 10.6769 16.4573 9.1827C15.8607 8.79761 15.3067 8.63468 14.7809 8.63386H14.781ZM19.2785 12.671C18.9322 14.4749 17.4309 15.7986 15.4738 15.7998C14.7519 15.8005 14.0445 15.6731 13.4273 15.3543C14.0556 16.6196 15.2069 17.5097 16.4917 17.5086C18.3011 17.5067 19.6487 15.7632 19.4959 13.6371C19.4711 13.2896 19.3752 12.991 19.2786 12.6709L19.2785 12.671ZM24.9727 14.668C22.9705 19.2805 16.9689 20.0786 12.6268 17.883C13.7834 22.1782 18.4329 23.0397 21.7318 21.1884C21.2654 22.7771 20.1042 24.5023 17.9636 25.8518C22.9312 24.9426 25.7428 19.3899 24.9727 14.6679L24.9727 14.668ZM10.5114 16.6456C10.4191 16.8727 10.3409 17.0967 10.2725 17.3191C7.40252 21.53 8.35346 27.2972 12.4869 30.3515C16.7199 33.4793 22.6949 32.5832 25.8227 28.3502C28.159 25.1884 28.25 21.0543 26.3822 17.8615C26.6547 21.1312 23.427 26.5299 19.5627 27.3195C15.8873 28.0703 12.014 26.1421 10.7094 22.2558C12.2948 25.0448 16.0315 26.1455 18.562 23.7343C14.1493 25.2308 10.9363 20.3245 10.5114 16.6456Z" fill="url(#paint0_linear_2_128)"/>
<defs>
<linearGradient id="paint0_linear_2_128" x1="13.8442" y1="1.52588e-05" x2="13.8442" y2="32.2174" gradientUnits="userSpaceOnUse">
<stop offset="0.0240385" stop-color="#E69797"/>
<stop offset="1" stop-color="#A95050"/>
</linearGradient>
</defs>
</svg>
