<svg width="115" height="28" viewBox="0 0 115 28" fill="none" xmlns="http://www.w3.org/2000/svg">
<path d="M34 25V4.99999H41.1022C42.6523 4.99999 43.9365 5.28319 44.9548 5.8496C45.9731 6.416 46.7352 7.19074 47.2411 8.17381C47.747 9.15038 48 10.2506 48 11.4746C48 12.7051 47.7438 13.8118 47.2314 14.7949C46.7255 15.7715 45.9602 16.5462 44.9354 17.1191C43.9171 17.6855 42.6361 17.9687 41.0924 17.9687H36.2085V15.4101H40.82C41.7994 15.4101 42.5939 15.2409 43.2036 14.9023C43.8133 14.5573 44.2608 14.0885 44.5462 13.4961C44.8316 12.9036 44.9743 12.2298 44.9743 11.4746C44.9743 10.7194 44.8316 10.0488 44.5462 9.46288C44.2608 8.87694 43.8101 8.41795 43.1939 8.08592C42.5842 7.75389 41.7799 7.58788 40.7811 7.58788H37.0063V25H34Z" fill="#B85151"/>
<path d="M51 25V8.25079H53.8127V10.9115H53.9684C54.2409 10.01 54.721 9.30125 55.4088 8.7851C56.103 8.26169 56.8881 7.99999 57.764 7.99999C57.9457 7.99999 58.1598 8.00726 58.4063 8.0218C58.6594 8.03633 58.8573 8.05451 59 8.07632V11.195C58.8832 11.1586 58.6756 11.1187 58.3771 11.075C58.0787 11.0241 57.7802 10.9987 57.4818 10.9987C56.794 10.9987 56.1809 11.1623 55.6423 11.4894C55.1103 11.8093 54.6886 12.2563 54.3771 12.8306C54.0657 13.3977 53.91 14.0447 53.91 14.7716V25H51Z" fill="#DE8080"/>
<path d="M78.0963 25C76.953 25 75.9193 24.7849 74.9953 24.3547C74.0713 23.9165 73.3391 23.2832 72.7987 22.4547C72.2662 21.6262 72 20.6105 72 19.4075C72 18.3719 72.1958 17.5195 72.5873 16.8503C72.9789 16.1811 73.5074 15.6513 74.1731 15.261C74.8387 14.8706 75.5826 14.5759 76.4049 14.3767C77.2271 14.1776 78.065 14.0262 78.9186 13.9226C79.9992 13.7952 80.8763 13.6916 81.5497 13.6119C82.2232 13.5243 82.7126 13.3849 83.018 13.1937C83.3234 13.0025 83.4761 12.6918 83.4761 12.2616V12.178C83.4761 11.1344 83.1864 10.3258 82.6069 9.75219C82.0352 9.1786 81.1817 8.89181 80.0462 8.89181C78.8637 8.89181 77.9319 9.15869 77.2506 9.69244C76.5771 10.2182 76.1112 10.8038 75.8528 11.449L72.5521 10.6843C72.9436 9.56896 73.5153 8.66875 74.267 7.98363C75.0266 7.29055 75.8998 6.78866 76.8865 6.47797C77.8731 6.15932 78.9107 5.99999 79.9992 5.99999C80.7197 5.99999 81.4832 6.08762 82.2897 6.26288C83.1042 6.43017 83.8637 6.74087 84.5685 7.19495C85.2811 7.64904 85.8645 8.29831 86.3187 9.14275C86.7729 9.97923 87 11.0667 87 12.405V24.5937H83.5701V22.0843H83.4291C83.202 22.5463 82.8614 23.0004 82.4072 23.4465C81.953 23.8926 81.3696 24.2631 80.657 24.5578C79.9444 24.8526 79.0908 25 78.0963 25ZM78.8598 22.1321C79.8309 22.1321 80.6609 21.9369 81.35 21.5465C82.047 21.1562 82.5756 20.6463 82.9358 20.017C83.3038 19.3797 83.4879 18.6985 83.4879 17.9736V15.6075C83.3626 15.735 83.1198 15.8545 82.7596 15.966C82.4072 16.0696 82.0039 16.1612 81.5497 16.2409C81.0955 16.3126 80.6531 16.3803 80.2224 16.444C79.7917 16.4998 79.4315 16.5476 79.1417 16.5874C78.4605 16.675 77.8379 16.8224 77.2741 17.0295C76.7181 17.2367 76.2717 17.5354 75.935 17.9258C75.6061 18.3082 75.4417 18.818 75.4417 19.4553C75.4417 20.3396 75.7627 21.0088 76.4049 21.4629C77.047 21.909 77.8653 22.1321 78.8598 22.1321Z" fill="#B85151"/>
<path d="M90 25V3.99999H93.203V13.126H103.787V3.99999H107V25H103.787V15.8432H93.203V25H90Z" fill="#B85151"/>
<path d="M111.402 25V9.1352H114.566V25H111.402ZM113 6.68731C112.45 6.68731 111.977 6.50828 111.582 6.15022C111.194 5.78528 111 5.35147 111 4.84881C111 4.33927 111.194 3.90546 111.582 3.5474C111.977 3.18246 112.45 2.99999 113 2.99999C113.55 2.99999 114.019 3.18246 114.407 3.5474C114.802 3.90546 115 4.33927 115 4.84881C115 5.35147 114.802 5.78528 114.407 6.15022C114.019 6.50828 113.55 6.68731 113 6.68731Z" fill="#B85151"/>
<path d="M59.4189 3.59178C61.0387 3.59178 62.3836 3.87062 63.4521 4.4287C64.5273 4.98673 65.3305 5.75936 65.8613 6.74608C66.3922 7.72612 66.6572 8.86017 66.6572 10.1465C66.6572 11.4258 66.3882 12.5523 65.8506 13.5254C65.3197 14.4916 64.5166 15.2436 63.4414 15.7812C63.2457 15.8797 63.0404 15.9684 62.8262 16.0488L67.4541 24.499H63.8604L59.6104 16.583C59.5438 16.5839 59.4767 16.5879 59.4092 16.5879H56.5391V13.8721H59.123C60.1439 13.8721 60.9745 13.7262 61.6143 13.4336C62.2608 13.1409 62.7337 12.7152 63.0332 12.1572C63.3326 11.5992 63.4824 10.9289 63.4824 10.1465C63.4824 9.35699 63.3297 8.67223 63.0234 8.09374C62.724 7.51536 62.2509 7.07283 61.6045 6.76659C60.9647 6.45352 60.1233 6.29686 59.082 6.29686H55.1211V6.53221H51.9668V3.59178H59.4189Z" fill="url(#paint0_linear_1_59)"/>
<path d="M13.9665 0.0001417C12.6185 -0.0106025 11.2764 0.589997 10.4859 1.68256C10.2889 1.95475 10.1954 2.23266 10.0886 2.52568C11.5939 1.38668 13.9637 1.26802 15.9512 2.39138C16.6845 2.80587 17.3211 3.30565 17.7437 3.89676C17.9151 2.59731 17.3156 1.27482 16.0109 0.537411C15.3794 0.180346 14.6727 0.00569286 13.9665 0.0001417ZM4.67914 1.53519C2.23902 1.84223 0.948879 4.17384 3.07688 6.38678C6.97553 10.4414 11.4652 2.52467 16.6415 5.13526C13.4097 0.084722 9.74299 5.41163 5.64719 4.9562C4.18777 4.79402 3.24109 3.00571 4.67914 1.53519ZM0.452378 4.15599C-1.62173 8.30862 3.85506 12.7071 8.37442 9.02072C5.21802 9.60508 0.335684 8.19318 0.452378 4.15599ZM14.1568 6.04554C13.8027 6.05294 13.4799 6.10511 13.1383 6.15375C15.8301 6.97795 17.9813 9.24629 18.2624 11.8615C18.366 12.8263 18.2813 13.7476 17.9025 14.5084C19.6661 13.9226 20.8065 12.5618 20.622 10.845C20.3623 8.42728 17.615 6.27677 14.5225 6.05491C14.3959 6.04583 14.2748 6.04309 14.1568 6.04554ZM12.812 7.48371C10.0266 7.47929 8.15936 12.7602 4.42176 11.953C7.79424 15.2679 9.49683 10.2111 12.6291 9.66991C13.7452 9.47693 14.7923 10.6938 14.0057 12.1843C15.7608 11.4003 16.2719 9.25459 14.265 7.95943C13.7479 7.62565 13.2678 7.48442 12.812 7.48371ZM16.7104 10.983C16.4102 12.5467 15.1089 13.694 13.4125 13.6951C12.7868 13.6957 12.1736 13.5853 11.6386 13.3089C12.1832 14.4056 13.1812 15.1772 14.2948 15.1762C15.8632 15.1746 17.0313 13.6633 16.8988 11.8204C16.8773 11.5192 16.794 11.2605 16.7104 10.983ZM21.646 12.714C19.9105 16.7121 14.7084 17.4039 10.9448 15.5007C11.9473 19.2238 15.9774 19.9705 18.8369 18.3658C18.4326 19.7429 17.426 21.2382 15.5706 22.408C19.8765 21.6199 22.3135 16.807 21.646 12.714ZM9.11112 14.4282C9.03113 14.6251 8.96338 14.8192 8.90411 15.012C6.41642 18.6619 7.24067 23.6609 10.8235 26.3083C14.4926 29.0194 19.6717 28.2427 22.3828 24.5736C24.4079 21.833 24.4868 18.2496 22.8678 15.4821C23.1039 18.3163 20.3063 22.9957 16.9567 23.6801C13.7709 24.331 10.4136 22.6596 9.28278 19.291C10.657 21.7085 13.8959 22.6626 16.0893 20.5726C12.2644 21.8698 9.47946 17.617 9.11112 14.4282Z" fill="url(#paint1_linear_1_59)"/>
<defs>
<linearGradient id="paint0_linear_1_59" x1="12" y1="0" x2="12" y2="27.9256" gradientUnits="userSpaceOnUse">
<stop offset="0.0240385" stop-color="#E69797"/>
<stop offset="1" stop-color="#A95050"/>
</linearGradient>
<linearGradient id="paint1_linear_1_59" x1="12" y1="0" x2="12" y2="27.9256" gradientUnits="userSpaceOnUse">
<stop offset="0.0240385" stop-color="#E69797"/>
<stop offset="1" stop-color="#A95050"/>
</linearGradient>
</defs>
</svg>
