<svg width="28" height="33" viewBox="0 0 28 33" fill="none" xmlns="http://www.w3.org/2000/svg">
<path d="M16.2943 0.000180576C14.7216 -0.0123543 13.1558 0.688345 12.2335 1.963C12.0037 2.28055 11.8947 2.60479 11.77 2.94664C13.5262 1.61781 16.2909 1.47937 18.6098 2.78996C19.4652 3.27353 20.208 3.85661 20.701 4.54623C20.901 3.03021 20.2015 1.48731 18.6794 0.626994C17.9426 0.210418 17.1181 0.00672666 16.2943 0.000250309V0.000180576ZM5.459 1.79107C2.61219 2.14929 1.10702 4.86949 3.5897 7.45126C8.13812 12.1816 13.376 2.94546 19.4151 5.99116C15.6447 0.0988579 11.3668 6.31358 6.58839 5.78224C4.88573 5.59304 3.78127 3.50667 5.459 1.79107ZM0.527774 4.84867C-1.89202 9.6934 4.49757 14.8249 9.77016 10.5242C6.08769 11.2059 0.391631 9.55872 0.527774 4.84867ZM16.5163 7.05314C16.1032 7.06178 15.7266 7.12264 15.3281 7.17939C18.4684 8.14096 20.9782 10.7874 21.3062 13.8385C21.427 14.964 21.3282 16.0388 20.8862 16.9265C22.9438 16.2431 24.2743 14.6555 24.059 12.6525C23.756 9.83185 20.5509 7.32292 16.9429 7.06407C16.7953 7.05349 16.6539 7.05029 16.5163 7.05314ZM14.9473 8.731C11.6977 8.72585 9.51925 14.8869 5.15872 13.9452C9.09328 17.8125 11.0796 11.9129 14.734 11.2816C16.0361 11.0564 17.2577 12.4761 16.34 14.215C18.3875 13.3003 18.9839 10.797 16.6425 9.28602C16.0392 8.8966 15.479 8.73184 14.9472 8.731H14.9473ZM19.4954 12.8135C19.1453 14.6378 17.627 15.9764 15.6479 15.9776C14.9179 15.9783 14.2026 15.8495 13.5784 15.5271C14.2138 16.8066 15.3781 17.7067 16.6773 17.7056C18.507 17.7037 19.8698 15.9406 19.7153 13.7905C19.6902 13.4391 19.5932 13.1372 19.4956 12.8135L19.4954 12.8135ZM25.2537 14.8331C23.2289 19.4974 17.1598 20.3045 12.7689 18.0842C13.9385 22.4277 18.6403 23.299 21.9764 21.4268C21.5047 23.0334 20.3304 24.778 18.1657 26.1427C23.1892 25.2233 26.0325 19.6081 25.2537 14.833L25.2537 14.8331ZM10.6296 16.8329C10.5363 17.0626 10.4573 17.2891 10.3881 17.514C7.48582 21.7722 8.44745 27.6044 12.6274 30.693C16.9081 33.856 22.9503 32.9498 26.1133 28.6692C28.4758 25.4718 28.5679 21.2912 26.6791 18.0625C26.9546 21.369 23.6906 26.8284 19.7828 27.6269C16.0661 28.3862 12.1492 26.4362 10.8299 22.5062C12.4331 25.3266 16.2119 26.4397 18.7709 24.0013C14.3085 25.5147 11.0594 20.5532 10.6296 16.8329Z" fill="url(#paint0_linear_2_68)"/>
<defs>
<linearGradient id="paint0_linear_2_68" x1="14" y1="1.52588e-05" x2="14" y2="32.5799" gradientUnits="userSpaceOnUse">
<stop offset="0.0240385" stop-color="#E69797"/>
<stop offset="1" stop-color="#A95050"/>
</linearGradient>
</defs>
</svg>
